<mxfile host="app.diagrams.net" modified="2024-02-05T09:19:10.389Z" agent="Mozilla/5.0 (Windows NT 10.0; Win64; x64) AppleWebKit/537.36 (KHTML, like Gecko) Chrome/121.0.0.0 Safari/537.36" etag="qloMpzBVu2j3brCuvmhM" version="23.1.1" type="github">
  <diagram name="Page-1" id="bqS-FZ6hRactcgp-9Ks-">
    <mxGraphModel dx="989" dy="509" grid="1" gridSize="10" guides="1" tooltips="1" connect="1" arrows="1" fold="1" page="1" pageScale="1" pageWidth="827" pageHeight="1169" math="0" shadow="0">
      <root>
        <mxCell id="0" />
        <mxCell id="1" parent="0" />
        <mxCell id="y6TTsM0xGEVt4BT4Crah-1" value="Server Creation Module" style="swimlane;whiteSpace=wrap;html=1;startSize=40;" vertex="1" parent="1">
          <mxGeometry x="160" y="160" width="560" height="320" as="geometry" />
        </mxCell>
        <mxCell id="y6TTsM0xGEVt4BT4Crah-2" value="Provide Server Name" style="ellipse;whiteSpace=wrap;html=1;" vertex="1" parent="y6TTsM0xGEVt4BT4Crah-1">
          <mxGeometry x="40" y="230" width="200" height="40" as="geometry" />
        </mxCell>
        <mxCell id="y6TTsM0xGEVt4BT4Crah-3" value="Provide Server Image" style="ellipse;whiteSpace=wrap;html=1;" vertex="1" parent="y6TTsM0xGEVt4BT4Crah-1">
          <mxGeometry x="40" y="110" width="200" height="40" as="geometry" />
        </mxCell>
        <mxCell id="y6TTsM0xGEVt4BT4Crah-4" value="Create Server" style="ellipse;whiteSpace=wrap;html=1;" vertex="1" parent="y6TTsM0xGEVt4BT4Crah-1">
          <mxGeometry x="350" y="170" width="200" height="40" as="geometry" />
        </mxCell>
        <mxCell id="y6TTsM0xGEVt4BT4Crah-15" value="" style="edgeStyle=none;orthogonalLoop=1;jettySize=auto;html=1;rounded=0;exitX=1;exitY=0.5;exitDx=0;exitDy=0;entryX=0.5;entryY=0;entryDx=0;entryDy=0;" edge="1" parent="y6TTsM0xGEVt4BT4Crah-1" source="y6TTsM0xGEVt4BT4Crah-3" target="y6TTsM0xGEVt4BT4Crah-4">
          <mxGeometry width="100" relative="1" as="geometry">
            <mxPoint x="330" y="120" as="sourcePoint" />
            <mxPoint x="430" y="120" as="targetPoint" />
            <Array as="points">
              <mxPoint x="450" y="130" />
            </Array>
          </mxGeometry>
        </mxCell>
        <mxCell id="y6TTsM0xGEVt4BT4Crah-16" value="" style="edgeStyle=none;orthogonalLoop=1;jettySize=auto;html=1;rounded=0;exitX=1;exitY=0.5;exitDx=0;exitDy=0;entryX=0.5;entryY=1;entryDx=0;entryDy=0;" edge="1" parent="y6TTsM0xGEVt4BT4Crah-1" source="y6TTsM0xGEVt4BT4Crah-2" target="y6TTsM0xGEVt4BT4Crah-4">
          <mxGeometry width="100" relative="1" as="geometry">
            <mxPoint x="340" y="140" as="sourcePoint" />
            <mxPoint x="440" y="140" as="targetPoint" />
            <Array as="points">
              <mxPoint x="450" y="250" />
            </Array>
          </mxGeometry>
        </mxCell>
        <mxCell id="y6TTsM0xGEVt4BT4Crah-6" value="" style="endArrow=classic;html=1;rounded=0;entryX=0;entryY=0.5;entryDx=0;entryDy=0;" edge="1" parent="1" target="y6TTsM0xGEVt4BT4Crah-3">
          <mxGeometry width="50" height="50" relative="1" as="geometry">
            <mxPoint x="120" y="340" as="sourcePoint" />
            <mxPoint x="440" y="360" as="targetPoint" />
          </mxGeometry>
        </mxCell>
        <mxCell id="y6TTsM0xGEVt4BT4Crah-7" value="" style="endArrow=classic;html=1;rounded=0;entryX=0;entryY=0.5;entryDx=0;entryDy=0;" edge="1" parent="1" target="y6TTsM0xGEVt4BT4Crah-2">
          <mxGeometry width="50" height="50" relative="1" as="geometry">
            <mxPoint x="120" y="340" as="sourcePoint" />
            <mxPoint x="440" y="360" as="targetPoint" />
          </mxGeometry>
        </mxCell>
        <mxCell id="y6TTsM0xGEVt4BT4Crah-5" value="Actor" style="shape=umlActor;verticalLabelPosition=bottom;verticalAlign=top;html=1;outlineConnect=0;" vertex="1" parent="1">
          <mxGeometry x="90" y="301" width="30" height="60" as="geometry" />
        </mxCell>
      </root>
    </mxGraphModel>
  </diagram>
</mxfile>
